PathFileType	4	(X/Y/Z)	C:/Users/opensim2020/Desktop/walking_exp_matlab/subject03_walking05_straight_02.trc																																																																																																																																					
DataRate	CameraRate	NumFrames	NumMarkers	Units	OrigDataRate	OrigDataStartFrame	OrigNumFrames																																																																																																																																	
100	100	5	45	mm	100	1540	252																																																																																																																																	
Frame#	Time	LFHD			RFHD			LBHD			RBHD			C7			T10			CLAV			STRN			RBAK			LSHO			LUPA			LELB			LFRM			LWRA			LWRB			LFIN			RSHO			RUPA			RELB			RFRM			RWRA			RWRB			RFIN			LASI			RASI			LPSI			RPSI			LTHI			LKNE			LTIB			LANK			LHEE			LTOE			RTHI			RKNE			RTIB			RANK			RHEE			RTOE			*39			*40			*41			*42			*43			*44		
		X1	Y1	Z1	X2	Y2	Z2	X3	Y3	Z3	X4	Y4	Z4	X5	Y5	Z5	X6	Y6	Z6	X7	Y7	Z7	X8	Y8	Z8	X9	Y9	Z9	X10	Y10	Z10	X11	Y11	Z11	X12	Y12	Z12	X13	Y13	Z13	X14	Y14	Z14	X15	Y15	Z15	X16	Y16	Z16	X17	Y17	Z17	X18	Y18	Z18	X19	Y19	Z19	X20	Y20	Z20	X21	Y21	Z21	X22	Y22	Z22	X23	Y23	Z23	X24	Y24	Z24	X25	Y25	Z25	X26	Y26	Z26	X27	Y27	Z27	X28	Y28	Z28	X29	Y29	Z29	X30	Y30	Z30	X31	Y31	Z31	X32	Y32	Z32	X33	Y33	Z33	X34	Y34	Z34	X35	Y35	Z35	X36	Y36	Z36	X37	Y37	Z37	X38	Y38	Z38	X39	Y39	Z39	X40	Y40	Z40	X41	Y41	Z41	X42	Y42	Z42	X43	Y43	Z43	X44	Y44	Z44	X45	Y45	Z45
																																																																																																																																								
64	0.63	-650.81036	1618.62927	-1528.81042	-671.55994	1634.74121	-1398.41663	-776.92218	1569.41809	-1539.14539	-792.83667	1585.58777	-1410.43848	-811.97253	1420.00439	-1475.00378	-841.34235	1105.08191	-1466.81152	-690.93274	1344.17175	-1452.59778	-645.41693	1180.69348	-1445.6571	-877.83234	1246.62549	-1379.26184	-712.95184	1371.53247	-1614.35242	-702.62549	1173.31873	-1680.50464	-689.49841	1050.96143	-1690.80347	-660.07825	923.79718	-1685.74048	-648.12115	805.49518	-1652.65271	-656.21729	811.23145	-1707.69873	-642.99927	727.92847	-1695.3811	-759.25507	1374.02612	-1302.29749	-751.3078	1151.82227	-1227.34302	-725.82813	1041.33264	-1214.70642	-692.50287	908.59143	-1214.64941	-648.68958	819.5318	-1251.84473	-680.50958	808.80713	-1208.94043	-647.65076	742.13794	-1221.1217	-656.27179	950.58606	-1564.98267	-687.25049	940.06854	-1328.08069	-822.97235	969.43091	-1535.22388	-841.00568	965.55615	-1387.18835	-692.05231	647.65594	-1605.57764	-680.51343	471.41913	-1559.25281	-722.46179	279.4614	-1561.54932	-734.58789	70.92427	-1517.651	-776.461	35.61832	-1484.02588	-583.60669	35.00327	-1478.54041	-707.22906	639.53607	-1288.77722	-655.89331	467.21475	-1306.51892	-798.81775	345.57141	-1319.7373	-960.14734	210.75363	-1379.13782	-1004.7547	221.84248	-1439.26721	-906.14331	78.34897	-1384.5802	-742.32001	1681.03821	-1498.31799	NaN	NaN	NaN	NaN	NaN	NaN	NaN	NaN	NaN	NaN	NaN	NaN	NaN	NaN	NaN
65	0.64	-641.82239	1618.91052	-1528.33594	-662.74707	1634.95618	-1397.91174	-768.01367	1569.72998	-1538.73254	-784.03943	1585.87744	-1410.03137	-803.26996	1420.25586	-1474.58801	-832.44403	1105.38867	-1466.68994	-682.32764	1344.46375	-1452.31934	-636.79565	1181.06055	-1445.77515	-869.18793	1246.67468	-1379.49365	-704.33777	1372.28809	-1613.99951	-690.60156	1174.80286	-1680.28845	-673.73657	1052.68591	-1690.32813	-641.90265	926.35986	-1685.2533	-624.97375	809.31598	-1652.84521	-635.13531	814.12976	-1707.54358	-618.56982	731.71997	-1695.4469	-751.06763	1373.9729	-1301.97546	-743.82941	1151.677	-1227.2207	-718.78296	1041.11792	-1214.5155	-687.3371	907.95111	-1213.57751	-645.01599	817.86786	-1250.26282	-676.73883	808.06689	-1207.10938	-644.62177	740.92224	-1218.64685	-647.2934	951.0744	-1565.82007	-677.51282	941.21826	-1328.73157	-814.27338	969.57208	-1534.82458	-831.64105	966.13092	-1386.68066	-684.92822	647.45715	-1604.64001	-676.18414	471.16364	-1558.71448	-720.44208	279.57666	-1561.39185	-734.43884	71.11438	-1517.44214	-776.47565	35.84554	-1483.84131	-583.53131	34.93882	-1478.49426	-692.59064	641.06464	-1287.67749	-637.37933	469.70404	-1306.45129	-777.8457	345.47595	-1318.64343	-937.27454	207.77338	-1376.27771	-983.32788	217.13115	-1435.75098	-878.86475	77.56532	-1381.64026	-733.34393	1681.52795	-1497.16797	NaN	NaN	NaN	NaN	NaN	NaN	NaN	NaN	NaN	NaN	NaN	NaN	NaN	NaN	NaN
66	0.65	-632.94623	1619.15125	-1527.84082	-653.84534	1635.16235	-1397.3938	-759.46381	1570.21765	-1538.80823	-775.18591	1586.11316	-1409.59619	-794.70642	1420.51526	-1474.28137	-823.65588	1105.62964	-1466.45276	-673.66052	1344.63281	-1452.07031	-627.99164	1181.32593	-1445.99854	-860.521	1246.72192	-1379.55566	-695.90607	1373.18506	-1613.66748	-679.01367	1176.4541	-1680.17407	-659.00159	1054.90771	-1690.17627	-624.01965	929.37469	-1684.82605	-604.80731	812.65753	-1652.38953	-614.17212	817.54803	-1707.26147	-594.27332	736.16211	-1695.43665	-742.7088	1374.01306	-1301.67151	-736.49725	1151.56702	-1227.0874	-711.90607	1040.99792	-1214.24182	-682.08954	907.40961	-1212.52917	-641.14008	816.56189	-1248.49023	-672.95148	807.44678	-1205.27185	-641.63153	739.72931	-1216.14783	-638.85712	951.12622	-1566.45789	-667.84753	942.34351	-1329.31494	-805.67969	969.62274	-1534.3678	-822.34497	966.64655	-1386.10315	-677.79651	647.06732	-1603.90222	-672.19037	470.86847	-1558.34412	-718.36493	279.74466	-1561.23035	-734.42224	71.56316	-1517.46594	-776.48425	36.07802	-1483.73865	-583.40302	34.91888	-1478.48218	-677.70557	642.70941	-1287.90833	-619.13037	472.21719	-1306.53687	-756.92316	344.80893	-1317.34509	-913.89435	203.67824	-1373.25476	-961.17548	211.12802	-1431.98108	-850.62054	76.08345	-1379.14453	-724.45844	1682.03418	-1496.74255	NaN	NaN	NaN	NaN	NaN	NaN	NaN	NaN	NaN	NaN	NaN	NaN	NaN	NaN	NaN
67	0.66	-624.06256	1619.29663	-1527.26611	-644.8717	1635.20081	-1396.82996	-750.57031	1570.47217	-1538.19971	-766.26801	1586.31934	-1409.00342	-786.10126	1420.66418	-1473.84363	-814.86401	1105.7738	-1466.18445	-665.06964	1344.80518	-1451.79382	-619.23761	1181.48254	-1446.26172	-851.84753	1246.83813	-1379.45789	-687.45844	1374.07312	-1613.32385	-667.71417	1178.20544	-1680.24304	-644.41309	1057.19751	-1689.99951	-606.26855	932.57556	-1684.46411	-585.6864	816.09039	-1651.76392	-593.297	821.20062	-1706.83118	-570.10913	740.80975	-1695.12866	-734.29041	1374.0011	-1301.38562	-729.35492	1151.49438	-1226.86157	-705.21539	1040.82751	-1213.87109	-677.05634	906.91455	-1211.37476	-637.27924	815.25781	-1246.74683	-669.17114	806.9765	-1203.43896	-638.94763	738.94708	-1213.5094	-630.67352	951.06317	-1566.96057	-658.22656	943.21466	-1329.7627	-797.08313	969.5415	-1533.9054	-813.07977	966.98865	-1385.48804	-671.29999	647.00354	-1603.34924	-668.31451	470.59592	-1558.19031	-716.21216	279.90866	-1561.05627	-734.2085	71.81026	-1517.34521	-775.84967	34.90343	-1482.58105	-583.31537	34.87138	-1478.47192	-662.33276	644.08087	-1287.27173	-601.33179	474.80777	-1306.89331	-735.94904	343.71951	-1316.13159	-890.01031	198.35036	-1370.06921	-938.47668	204.07173	-1428.44019	-821.49969	73.9344	-1377.17004	-715.47906	1682.24622	-1496.03015	NaN	NaN	NaN	NaN	NaN	NaN	NaN	NaN	NaN	NaN	NaN	NaN	NaN	NaN	NaN
68	0.67	-615.02307	1619.36267	-1526.6051	-635.98767	1635.18884	-1396.22278	-741.73352	1570.74829	-1537.61902	-757.41742	1586.46655	-1408.39795	-777.50781	1420.8313	-1473.38904	-806.13702	1105.86536	-1465.91528	-656.46179	1344.95349	-1451.58228	-610.71289	1181.56531	-1446.47253	-843.1557	1246.89722	-1379.22888	-679.07806	1374.98596	-1612.94482	-656.78204	1179.92773	-1680.36938	-630.3064	1059.62085	-1690.04358	-588.72803	936.03998	-1684.14111	-563.65576	820.51306	-1651.229	-572.60907	825.15289	-1706.24805	-546.20581	746.05304	-1694.85803	-725.76825	1373.95081	-1301.17407	-722.26868	1151.35742	-1226.60071	-698.65601	1040.66614	-1213.32483	-672.01288	906.51355	-1210.18298	-633.09827	814.1474	-1244.86194	-665.37952	806.49274	-1201.6261	-635.59204	737.95581	-1211.28162	-622.41919	950.84717	-1567.43164	-648.9502	943.79529	-1330.34607	-788.5376	969.39722	-1533.32214	-803.89441	967.23987	-1384.89063	-665.15845	646.69165	-1603.05237	-664.49237	470.38678	-1558.06897	-713.98511	280.00388	-1560.81262	-734.0304	72.05556	-1517.16748	-775.66577	35.63361	-1482.60291	-583.2019	34.8058	-1478.50098	-648.42639	645.95953	-1286.87195	-584.01257	477.42334	-1307.37561	-714.99097	342.27139	-1314.98279	-865.28864	192.73793	-1367.62085	-915.04541	195.94719	-1425.06677	-791.33087	71.56467	-1375.30286	-706.49927	1682.28528	-1495.41565	NaN	NaN	NaN	NaN	NaN	NaN	NaN	NaN	NaN	NaN	NaN	NaN	NaN	NaN	NaN
